<svg xmlns="http://www.w3.org/2000/svg" xmlns:d="http://www.mathworks.com/blockgraphics" xmlns:xlink="http://www.w3.org/1999/xlink" version="1.1" id="svg" width="10824" height="7224" d:options="Foreground:PortStyled;StrokeScaling:PortStyled;StrokeScalingOnResize:NonScaling;LineExtension:On;Rotate:On;Resize:FitToBlock;Frame:Off;Clipping:None;PreAdjustStrokeWidth:Normalized;TextScalingOnResize:Constant;Geometric:Off;Port:Auto Majority;">
	<g id="part" title="part_0" ie-ports="left:customization-thermal_liquid_custom-thermal_liquid_custom*foundation-thermal-thermal,top:input,right:customization-thermal_liquid_custom-thermal_liquid_custom,bottom:output">
		<g id="group">
			<title>
				Layer 1			</title>
			<path id="svg_2" fill="#000000" fill-opacity="0" stroke="#000000" stroke-width="8px" d:options="Port:R0;" d=" M 9012,2712 A 1125,1125 0 0 1  9012,4512"/>
			<path id="svg_3" fill="#000000" fill-opacity="0" stroke="#000000" stroke-width="8px" d:options="Port:L0;" d=" M 3612,2937 A 3825,3825 0 0 0  7212,2937"/>
			<path id="svg_4" fill="#000000" fill-opacity="0" stroke="#000000" stroke-width="8px" d:options="Port:L0;" d=" M 3612,4287 A 3825,3825 0 0 1  7212,4287"/>
			<ellipse id="svg_5" fill="#000000" fill-opacity="0" stroke="#000000" stroke-width="8px" d:options="Port:L0;" cx="1812" cy="3612" rx="450" ry="900"/>
			<path id="svg_6" fill-opacity="0" stroke="#000000" stroke-width="8px" d:options="Port:L1;" d=" M 12,5412 L 5412,5412 L 5412,4512"/>
			<rect id="svg_7" fill="#000000" fill-opacity="0" stroke="#ffffff" stroke-width="8px" x="12" y="12" width="10800" height="7200" rx="0" ry="0"/>
			<path id="svg_8" fill-opacity="0" stroke="#000000" stroke-width="8px" d:options="Port:R0;" d=" M 9462,3612 L 10812,3612"/>
			<path id="svg_9" fill-opacity="0" stroke="#000000" stroke-width="8px" d:options="Port:L0;" d=" M 1812,3612 L 912,3612 L 462,1812 L 12,1812"/>
			<path id="svg_10" fill-opacity="0" stroke="#000000" stroke-width="8px" d:options="Port:L1;" d=" M 4062,4512 L 6762,4512"/>
			<path id="svg_11" fill-opacity="0" stroke="#000000" stroke-width="8px" d:options="Port:L0;" d=" M 1812,2712 L 9012,2712"/>
			<path id="svg_12" fill-opacity="0" stroke="#000000" stroke-width="8px" d:options="Port:L0;" d=" M 1812,4512 L 4062,4512"/>
			<path id="svg_13" fill-opacity="0" stroke="#000000" stroke-width="8px" d:options="Port:L0;" d=" M 6762,4512 L 9012,4512"/>
		</g>
	</g>
</svg>
