<?xml version="1.0" standalone="no"?>
<!-- Creator: fig2dev Version 3.2.7a -->
<!-- CreationDate: 2020-07-22 15:14:55 -->
<!-- Magnification: 1.05 -->
<svg	xmlns="http://www.w3.org/2000/svg"
	xmlns:xlink="http://www.w3.org/1999/xlink"
	width="342pt" height="342pt"
	viewBox="-12 -12 5424 5424">
<g fill="none">
<!-- Arc -->
<path d="M 1350,225 A 2699 2699 0 0 1 2699 5263"
	stroke="#000000" stroke-width="8px"/>
<!-- Arc -->
<path d="M 1349,3822 A 900 900 0 0 0 2124 3378"
	stroke="#000000" stroke-width="8px"/>
<!-- Circle -->
<circle cx="1350" cy="2925" r="360"
	stroke="#000000" stroke-width="8px"/>
<!-- Circle -->
<circle cx="1355" cy="2925" r="225"
	stroke="#000000" stroke-width="8px"/>
<!-- Line -->
<rect x="0" y="0" width="5400" height="5400"
	stroke="#ffffff" stroke-width="8px"/>
<!-- Line -->
<polygon points=" 1350,3915 1350,3710 1145,3812" fill="#000000"
	stroke="#000000" stroke-width="8px"/>
<!-- Line -->
<polygon points=" 2028,3316 2205,3420 2220,3191" fill="#000000"
	stroke="#000000" stroke-width="8px"/>
<!-- Line -->
<polyline points=" 1350,1125 1350,2565"
	stroke="#000000" stroke-width="8px"/>
<!-- Line -->
<polyline points=" 1530,3240 2700,5265"
	stroke="#000000" stroke-width="8px"/>
<!-- Line -->
<polyline points=" 1350,225 1350,675"
	stroke="#000000" stroke-width="8px"/>
<!-- Line -->
<polyline points=" 5400,1350 2475,1350"
	stroke="#000000" stroke-width="8px"/>
<!-- Line -->
<polyline points=" 5400,4050 3825,4050"
	stroke="#000000" stroke-width="8px"/>
<!-- Line -->
<polyline points=" 0,900 2025,900"
	stroke="#000000" stroke-width="8px"/>
<!-- Line -->
<polyline points=" 0,4500 2250,4500"
	stroke="#000000" stroke-width="8px"/>
</g>
</svg>
