<!-- Creator: fig2dev Version 3.2.6a -->
<!-- CreationDate: 2018-04-21 16:17:35 -->
<!-- Magnification: 1.05 -->
<svg width="5424" height="5424" xmlns="http://www.w3.org/2000/svg">
 <g>
  <title>Layer 1</title>
  <g id="svg_1" fill="none">
   <!-- Arc -->
   <path id="svg_2" stroke-width="8px" stroke="#000000" d="m1350,225a2699,2699 0 0 1 1349,5038"/>
   <!-- Arc -->
   <path id="svg_3" stroke-width="8px" stroke="#000000" d="m1349,3822a900,900 0 0 0 775,-444"/>
   <!-- Circle -->
   <circle id="svg_4" stroke-width="8px" stroke="#000000" r="360" cy="2925" cx="1350"/>
   <!-- Circle -->
   <circle id="svg_5" stroke-width="8px" stroke="#000000" r="225" cy="2925" cx="1355"/>
   <!-- Line -->
   <rect id="svg_6" stroke-width="8px" stroke="#ffffff" height="5400" width="5400" y="0" x="0"/>
   <!-- Line -->
   <polygon id="svg_7" stroke-width="8px" stroke="#000000" fill="#000000" points=" 1350,3915 1350,3710 1145,3812"/>
   <!-- Line -->
   <polygon id="svg_8" stroke-width="8px" stroke="#000000" fill="#000000" points=" 2028,3316 2205,3420 2220,3191"/>
   <!-- Line -->
   <polyline id="svg_9" stroke-width="8px" stroke="#000000" points=" 1350,1575 1350,2565"/>
   <!-- Line -->
   <polyline id="svg_10" stroke-width="8px" stroke="#000000" points=" 1530,3240 2700,5265"/>
   <!-- Line -->
   <polyline id="svg_11" stroke-width="8px" stroke="#000000" points=" 1350,225 1350,1125"/>
   <!-- Line -->
   <polyline id="svg_12" stroke-width="8px" stroke="#000000" points=" 0,1350 2025,1350"/>
   <!-- Line -->
   <polyline id="svg_13" stroke-width="8px" stroke="#000000" points=" 5400,1350 2475,1350"/>
   <!-- Line -->
   <polyline id="svg_14" stroke-width="8px" stroke="#000000" points=" 5400,4050 3825,4050"/>
   <!-- Line -->
   <polyline id="svg_15" stroke-width="8px" stroke="#000000" points=" 0,4050 2025,4050"/>
  </g>
 </g>
</svg>