<?xml version="1.0" encoding="UTF-8" standalone="no"?>
<svg
   d:options="Background:Transparent"
   height="2.5in"
   viewBox="9 9 405 162"
   width="5.875in"
   version="1.1"
   id="svg32"
   sodipodi:docname="laminar_leakage.svg"
   inkscape:version="1.1.2 (0a00cf5339, 2022-02-04)"
   xmlns:inkscape="http://www.inkscape.org/namespaces/inkscape"
   xmlns:sodipodi="http://sodipodi.sourceforge.net/DTD/sodipodi-0.dtd"
   xmlns="http://www.w3.org/2000/svg"
   xmlns:svg="http://www.w3.org/2000/svg"
   xmlns:rdf="http://www.w3.org/1999/02/22-rdf-syntax-ns#"
   xmlns:cc="http://creativecommons.org/ns#"
   xmlns:dc="http://purl.org/dc/elements/1.1/"
   xmlns:d="http://www.mathworks.com/blockgraphics">
  <sodipodi:namedview
     id="namedview34"
     pagecolor="#ffffff"
     bordercolor="#666666"
     borderopacity="1.0"
     inkscape:pageshadow="2"
     inkscape:pageopacity="0.0"
     inkscape:pagecheckerboard="0"
     inkscape:document-units="in"
     showgrid="false"
     inkscape:zoom="2.2730496"
     inkscape:cx="282"
     inkscape:cy="120.10296"
     inkscape:window-width="1856"
     inkscape:window-height="1011"
     inkscape:window-x="64"
     inkscape:window-y="32"
     inkscape:window-maximized="1"
     inkscape:current-layer="svg32" />
  <title
     id="title2">Fig file converted by fig2lat</title>
  <desc
     id="desc4">http://dktools.sourceforge.net/fig2lat.html</desc>
  <defs
     id="defs8">
    <style
       type="text/css"
       id="style6">
.sA {
fill: #000000;
fillrule: evenodd;
stroke-miterlimit: 20;
}
.sC {
fill: none;
stroke: #000000;
stroke-width: 0.9;
stroke-miterlimit: 20;
}
.sB {
fill: none;
stroke: #000000;
stroke-width: 0.9;
stroke-miterlimit: 20;
}
.sF {
fill: none;
stroke: #000000;
stroke-width: 2.7;
}
.sE {
fill: none;
stroke: #000000;
stroke-width: 2.7;
stroke-miterlimit: 20;
}
</style>
  </defs>
  <polygon
     class="sA"
     points="173.25,97.65 174.15,97.65 174.15,98.55 173.25,98.55"
     id="polygon10" />
  <polygon
     class="sA"
     points="173.25,78.75 174.15,78.75 174.15,79.65 173.25,79.65"
     id="polygon12" />
  <polyline
     class="sB"
     points="306,90 414,90"
     id="polyline14" />
  <polyline
     class="sB"
     points="9,90 117,90"
     id="polyline16" />
  <rect
     d:options="ClosedShapeFill:On"
     height="108"
     width="189"
     x="117"
     y="36"
     class="sC"
     id="rect18" />
  <polyline
     class="sE"
     points="173.7,98.1 254.7,98.1"
     id="polyline20" />
  <polyline
     class="sE"
     points="173.7,79.2 254.7,79.2"
     id="polyline22" />
  <path
     class="sF"
     d="M146.7,119.7 C148.359,113.719 151.861,108.412 156.708,104.535 C161.555,100.657 167.5,98.4056 173.7,98.1 "
     id="path24" />
  <path
     class="sF"
     d="M254.7,98.1 C260.9,98.4056 266.845,100.657 271.692,104.535 C276.539,108.412 280.041,113.719 281.7,119.7 "
     id="path26" />
  <path
     class="sF"
     d="M173.7,79.2 C167.5,78.8944 161.555,76.6429 156.708,72.7653 C151.861,68.8877 148.359,63.5813 146.7,57.6 "
     id="path28" />
  <path
     class="sF"
     d="M281.7,57.6 C280.041,63.5813 276.539,68.8877 271.692,72.7653 C266.845,76.6429 260.9,78.8944 254.7,79.2 "
     id="path30" />
  <metadata
     id="metadata867">
    <rdf:RDF>
      <cc:Work
         rdf:about="">
        <dc:title>Fig file converted by fig2lat</dc:title>
      </cc:Work>
    </rdf:RDF>
  </metadata>
</svg>
