<?xml version="1.0" encoding="UTF-8" standalone="no"?>
<?xml-stylesheet href="physmodIcon.css" type="text/css"?><svg
   d:options="Background:Transparent"
   height="342pt"
   viewBox="-12 -12 5424 5424"
   width="342pt"
   version="1.1"
   id="svg16"
   sodipodi:docname="pressure_relief_valve.svg"
   inkscape:version="1.1.2 (0a00cf5339, 2022-02-04)"
   xmlns:inkscape="http://www.inkscape.org/namespaces/inkscape"
   xmlns:sodipodi="http://sodipodi.sourceforge.net/DTD/sodipodi-0.dtd"
   xmlns="http://www.w3.org/2000/svg"
   xmlns:svg="http://www.w3.org/2000/svg"
   xmlns:d="http://www.mathworks.com/blockgraphics">
  <defs
     id="defs20" />
  <sodipodi:namedview
     id="namedview18"
     pagecolor="#ffffff"
     bordercolor="#666666"
     borderopacity="1.0"
     inkscape:pageshadow="2"
     inkscape:pageopacity="0.0"
     inkscape:pagecheckerboard="0"
     inkscape:document-units="pt"
     showgrid="false"
     inkscape:zoom="1.8399123"
     inkscape:cx="204.35757"
     inkscape:cy="246.75089"
     inkscape:window-width="1856"
     inkscape:window-height="1011"
     inkscape:window-x="64"
     inkscape:window-y="32"
     inkscape:window-maximized="1"
     inkscape:current-layer="g14" />
  <g
     fill="none"
     id="g14">
    <!-- Circle -->
    <!-- Line -->
    <!-- Line -->
    <!-- Line -->
    <!-- Line -->
    <!-- Line -->
    <!-- Line -->
    <path
       style="fill:#000000;stroke-width:12.4866"
       d="m 3106.2884,5243.0683 c -303.8657,-57.8337 -554.5853,-111.0882 -557.1545,-118.3427 -2.8483,-8.0429 114.5496,-41.2035 300.8135,-84.9688 l 305.485,-71.778 -345.3735,-106.4753 c -357.8405,-110.3187 -366.792,-111.609 -367.3373,-52.9556 -0.1032,11.6598 -4.9345,21.1996 -10.7246,21.1996 -23.8272,0 -647.6682,-275.63 -646.8013,-285.7745 1.2639,-14.794 -22.7812,-17.6461 365.1822,43.3138 377.609,59.3332 354.0171,50.1729 323.2956,125.5277 -6.1152,14.9996 61.1607,39.6864 349.7035,128.3232 196.5016,60.3629 369.2901,109.6665 383.9745,109.5638 14.6844,-0.097 121.5771,-23.6367 237.5398,-52.2972 l 210.8407,-52.1099 -513.5542,-123.1034 c -282.4549,-67.7067 -532.2599,-126.6248 -555.1225,-130.9286 -22.8625,-4.3037 -41.568,-14.0276 -41.568,-21.6086 0,-8.0418 213.1133,-64.182 511.5959,-134.7692 l 511.596,-120.9855 -807.6138,-3.1196 -807.6136,-3.1195 V 3884.7582 3460.8564 H 1328.878 704.30424 l 1.14056,-348.2799 1.14057,-348.2798 -280.70789,-6.4145 -280.70784,-6.4143 292.80016,-2.6713 292.80019,-2.671 v 345.2513 345.2514 h 611.34081 611.341 v -124.4221 -124.4217 l -115.43,-108.1442 c -63.4866,-59.479 -112.5377,-110.8663 -109.0027,-114.1937 3.5351,-3.3273 55.4786,39.8795 115.4301,96.0152 l 109.0026,102.0646 V 2615.6317 2067.737 h 579.1652 579.1651 v -90.8555 c 0,-52.4944 5.4341,-90.8557 12.8704,-90.8557 7.4362,0 12.8704,38.3613 12.8704,90.8557 v 90.8555 h 585.6002 585.6004 v 339.0469 339.0467 l 479.4201,3.3279 479.42,3.328 -479.42,2.8767 -479.4201,2.8764 v 775.3012 775.3013 h -303.824 -303.8239 l -542.3037,128.1159 c -298.267,70.4639 -543.8474,129.5691 -545.7343,131.3452 -1.8868,1.776 245.6483,62.6903 550.0783,135.3652 304.43,72.6749 551.7318,137.1946 549.5598,143.3771 -2.1722,6.1825 -107.8556,36.69 -234.8522,67.7946 l -230.9029,56.5537 405.4157,124.2394 c 222.9787,68.3316 407.8288,126.4084 410.7783,129.0591 27.9388,25.1108 -70.3398,-0.1585 -435.8277,-112.059 l -426.6009,-130.6111 -279.3356,64.7531 c -153.6347,35.6142 -283.5108,68.2451 -288.6138,72.5133 -5.1031,4.2682 233.9838,53.4168 531.3043,109.2186 297.3202,55.8021 543.6387,106.1131 547.3744,111.8021 12.175,18.542 -45.3909,9.2914 -605.1269,-97.241 z M 4282.9829,3466.9134 c 0,-728.3491 -2.1668,-817.7005 -19.8283,-817.7005 -10.9056,0 -198.899,40.885 -417.7634,90.8557 -218.8642,49.9705 -406.8575,90.8557 -417.7631,90.8557 -16.205,0 -19.8283,-17.709 -19.8283,-96.9129 v -96.9127 h -714.3037 -714.3037 v 823.7577 823.7575 h 1151.8952 1151.8953 z m -875.1831,-938.8413 c 0,-81.3643 3.3539,-96.9127 20.9053,-96.9127 11.4978,0 205.5586,40.8849 431.2462,90.8556 225.6876,49.9706 413.1964,90.8557 416.6863,90.8557 3.4898,0 6.3453,-117.2038 6.3453,-260.4529 V 2091.9651 H 3131.0876 1979.1924 v 266.5098 266.5098 h 714.3037 714.3037 z m -1920.1601,235.8088 c -58.8049,-63.5246 -108.8485,-120.7638 -111.208,-127.1977 -11.5196,-31.4123 25.9238,-0.4702 113.6879,93.9476 114.0618,122.7093 134.5965,148.7498 117.3005,148.7498 -7.0744,0 -60.9756,-51.975 -119.7804,-115.4997 z m -126.2233,-478.0904 c 0,-113.0647 4.862,-181.7112 12.8701,-181.7112 8.0083,0 12.8704,68.6465 12.8704,181.7112 0,113.0648 -4.8621,181.7112 -12.8704,181.7112 -8.0081,0 -12.8701,-68.6464 -12.8701,-181.7112 z m 9.6527,-431.0295 c -5.3092,-5.0135 -9.6527,-84.5257 -9.6527,-176.6936 V 1510.489 h 109.3977 c 64.3517,0 109.3979,4.9881 109.3979,12.1142 0,6.9951 -40.635,12.1141 -96.1643,12.1141 h -96.1643 l -3.5807,164.5796 c -1.9695,90.5189 -7.9245,160.4775 -13.2336,155.4641 z m 1749.2933,-85.8381 c -4.7191,-4.4418 -8.5803,-58.9552 -8.5803,-121.1407 v -113.0649 h -77.2222 c -42.9009,0 -77.2219,-5.3841 -77.2219,-12.1141 0,-6.9224 38.611,-12.1142 90.0926,-12.1142 h 90.0923 v 133.2551 c 0,133.0337 -1.0079,140.3827 -17.1605,125.1788 z M 1721.7857,1522.6032 c 0,-7.681 96.2744,-12.1142 263.0822,-12.1142 161.5053,0 266.1537,4.6772 271.0367,12.1142 5.2068,7.9295 -85.6683,12.1141 -263.0822,12.1141 -172.1108,0 -271.0367,-4.4217 -271.0367,-12.1141 z m 733.6094,0 c 0,-7.5377 72.9317,-12.1142 193.055,-12.1142 120.123,0 193.0551,4.5765 193.0551,12.1142 0,7.5377 -72.9321,12.1141 -193.0551,12.1141 -120.1233,0 -193.055,-4.5764 -193.055,-12.1141 z"
       id="path1707" />
    <path
       style="fill:#000000;stroke-width:13.4276"
       id="path1531"
       d="" />
    <path
       style="fill:#000000;stroke-width:13.4276"
       id="path1511"
       d="" />
    <path
       style="fill:#000000;stroke-width:13.4276"
       id="path1491"
       d="" />
    <path
       style="fill:#000000;stroke-width:13.4276"
       id="path1471"
       d="" />
    <path
       style="fill:#000000;stroke-width:13.4276"
       id="path1371"
       d="" />
    <path
       style="fill:#000000;stroke-width:13.4276"
       id="path1351"
       d="" />
    <path
       style="fill:none;stroke:#000000;stroke-width:8.59379;stroke-linecap:butt;stroke-linejoin:miter;stroke-miterlimit:4;stroke-dasharray:none;stroke-opacity:1"
       d="M -4.032383,2757.6497 H 697.23574"
       id="path1920" />
    <path
       style="fill:none;stroke:#000000;stroke-width:10.8892;stroke-linecap:butt;stroke-linejoin:miter;stroke-miterlimit:4;stroke-dasharray:none;stroke-opacity:1"
       d="M 4295.3938,2758.0701 H 5421.3204"
       id="path1920-4" />
  </g>
</svg>
